<?xml version="1.0" encoding="utf-8"?>
<!-- Svg Vector Icons : http://www.onlinewebfonts.com/icon -->
<!DOCTYPE svg PUBLIC "-//W3C//DTD SVG 1.1//EN" "http://www.w3.org/Graphics/SVG/1.1/DTD/svg11.dtd">
<svg version="1.1" xmlns="http://www.w3.org/2000/svg" xmlns:xlink="http://www.w3.org/1999/xlink" x="0px" y="0px" viewBox="0 0 1000 1000" enable-background="new 0 0 1000 1000" xml:space="preserve">
<metadata> Svg Vector Icons : http://www.onlinewebfonts.com/icon </metadata>
<g><g><path d="M990,500c0-36.5-26.3-75.3-58.6-86.8s-63.7-39.5-72.9-61.7c-9.1-22.1-6.8-64.2,8-95.3c14.8-31,5.8-77.1-20-102.9c-25.8-25.8-71.8-34.7-102.9-19.9c-31,14.8-73.1,17.2-95.1,8s-50.1-40.6-61.7-72.9C575.3,36.2,536.4,10,500,10c-36.5,0-75.3,26.2-86.9,58.6c-11.5,32.4-39.6,63.8-61.7,72.9c-22.1,9.1-64.2,6.7-95.2-8c-31-14.8-77.1-5.8-102.9,19.9c-25.8,25.8-34.7,71.8-19.9,102.9c14.8,31,17.1,73.1,7.9,95.2c-9.2,22.1-40.5,50.2-72.8,61.7S10,463.5,10,500c0,36.4,26.2,75.3,58.6,86.9c32.4,11.5,63.7,39.6,72.9,61.7c9.2,22,6.8,64.1-8,95.1c-14.8,31-5.8,77.1,19.9,102.9c25.8,25.8,71.8,34.7,102.9,20c31-14.8,73.1-17.1,95.2-8c22.1,9.2,50.1,40.7,61.7,73c11.5,32.3,50.4,58.5,86.9,58.5c36.4,0,75.3-26.2,86.9-58.5c11.5-32.3,39.5-63.8,61.6-73c22.1-9.2,64.2-6.8,95.2,8c31,14.8,77.1,5.8,102.9-19.9c25.8-25.8,34.7-71.9,20-102.9c-14.8-31-17.2-73.1-8-95.2c9.1-22.1,40.6-50.2,72.9-61.7C963.7,575.3,990,536.4,990,500z M500,679.8c-99.4,0-179.8-80.4-179.8-179.6c0-99.4,80.4-179.8,179.8-179.8c99.2,0,179.6,80.4,179.6,179.8C679.6,599.4,599.2,679.8,500,679.8z"/></g><g></g><g></g><g></g><g></g><g></g><g></g><g></g><g></g><g></g><g></g><g></g><g></g><g></g><g></g><g></g></g>
</svg>